<svg xmlns="http://www.w3.org/2000/svg" fill="none" viewBox="0 0 64 64">
  <path fill="#fff" d="M26.67 32.08a5.34 5.34 0 1 1 10.68 0 5.34 5.34 0 0 1-10.68 0Zm-2.88 0a8.22 8.22 0 1 0 16.44 0 8.22 8.22 0 0 0-16.44 0Zm14.84-8.55a1.92 1.92 0 1 0 1.93-1.92 1.92 1.92 0 0 0-1.93 1.92ZM25.54 45.12a8.85 8.85 0 0 1-2.97-.55 4.98 4.98 0 0 1-1.84-1.2c-.56-.56-.91-1.1-1.2-1.84a8.85 8.85 0 0 1-.55-2.98c-.08-1.68-.1-2.2-.1-6.47s.02-4.78.1-6.47c.07-1.56.33-2.4.55-2.97.3-.75.64-1.28 1.2-1.85.56-.56 1.09-.9 1.84-1.2a8.84 8.84 0 0 1 2.97-.54c1.69-.08 2.2-.1 6.47-.1s4.78.02 6.47.1a8.9 8.9 0 0 1 2.97.55c.75.29 1.28.63 1.84 1.2.56.55.91 1.09 1.2 1.84.22.56.48 1.4.55 2.97.08 1.69.1 2.2.1 6.47 0 4.28-.02 4.78-.1 6.47a8.89 8.89 0 0 1-.55 2.98c-.29.75-.64 1.28-1.2 1.84-.56.56-1.09.9-1.84 1.2-.56.22-1.41.48-2.97.55-1.69.07-2.2.09-6.47.09-4.28 0-4.78-.02-6.47-.1Zm-.13-28.96c-1.7.08-2.87.35-3.89.75-1.05.4-1.94.96-2.83 1.85a7.82 7.82 0 0 0-1.85 2.83c-.4 1.02-.67 2.18-.74 3.89-.08 1.7-.1 2.25-.1 6.6s.02 4.9.1 6.6c.07 1.7.34 2.87.74 3.9.4 1.04.96 1.94 1.85 2.83.89.89 1.78 1.44 2.83 1.85 1.02.4 2.18.66 3.89.74 1.7.08 2.25.1 6.6.1s4.9-.02 6.6-.1c1.7-.08 2.87-.35 3.89-.74a7.87 7.87 0 0 0 2.83-1.85 7.84 7.84 0 0 0 1.85-2.84c.4-1.02.67-2.18.74-3.89.08-1.7.1-2.25.1-6.6s-.02-4.9-.1-6.6c-.08-1.7-.35-2.87-.74-3.89a7.88 7.88 0 0 0-1.85-2.83 7.83 7.83 0 0 0-2.83-1.85c-1.02-.4-2.19-.67-3.89-.75-1.7-.07-2.25-.1-6.6-.1s-4.9.03-6.6.1Z"/>
</svg>
