<svg xmlns="http://www.w3.org/2000/svg" xml:space="preserve" id="Layer_1" x="0" y="0" style="enable-background:new 0 0 55.2 38.4" version="1.1" viewBox="0 0 55.2 38.4">
  <style>
    .st1{fill:#c8102e}.st2{fill:#012169}
  </style>
  <path d="M2.9 38.4h49.4a3 3 0 0 0 2.9-3V3a3 3 0 0 0-3-3H3a3 3 0 0 0-3 3v32.4a3 3 0 0 0 2.9 3z" style="fill:#fefefe"/>
  <path d="M23.7 23v15.4h7.7V23h23.8v-7.6H31.4V0h-7.7v15.4H0V23h23.7z" class="st1"/>
  <path d="M34 12.4V0h18.2A3 3 0 0 1 55 2L34 12.3zM34 26v12.4h18.3a3 3 0 0 0 2.7-2L34 26zM21.2 26v12.4H2.9a3 3 0 0 1-2.7-2l21-10.4zM21.2 12.4V0H3A3 3 0 0 0 .2 2l21 10.4zM0 12.8h7.7L0 9v3.8zM55.2 12.8h-7.7L55.2 9v3.8zM55.2 25.6h-7.7l7.7 3.9v-3.9zM0 25.6h7.7L0 29.4v-3.8z" class="st2"/>
  <path d="m55.2 3.3-19 9.5h4.2l14.8-7.4V3.3zM19 25.6h-4.2L0 33v2.1l19.1-9.5H19zM10.5 12.8h4.3L0 5.4v2.2l10.5 5.2zM44.6 25.6h-4.2L55.2 33v-2.1l-10.6-5.3z" class="st1"/>
</svg>
