<svg xmlns="http://www.w3.org/2000/svg" fill="none" viewBox="0 0 64 64">
  <g fill="#fff">
    <path d="M24.5 45v-1.5a.2.2 0 0 0 0-.2h-.1c-1.4-.4-2.6-1-3.6-2a8.7 8.7 0 0 1-2-2.4 13 13 0 0 1-1.2-4.1 30.4 30.4 0 0 1-.1-8c.1-1.7.5-3.3 1.2-4.8a8.2 8.2 0 0 1 4.1-4.1c1.3-.6 2.6-1 4-1.3a28.1 28.1 0 0 1 12.8.5c1.2.3 2.4.9 3.5 1.6 1 .7 1.9 1.6 2.5 2.8a14 14 0 0 1 1.3 4.2 23 23 0 0 1 .3 5.9l-.3 3.2c-.1 1.6-.6 3.1-1.4 4.5a8.4 8.4 0 0 1-4.6 3.8 21.4 21.4 0 0 1-7.3 1.3h-2.3l-1.4-.1a.2.2 0 0 0-.2 0 109.6 109.6 0 0 1-3.4 3.7 1.1 1.1 0 0 1-1.6-.6l-.2-.9v-1.4Zm1.1 2.1h.1l2-2.3a1817.8 1817.8 0 0 0 2.8-2.8H34a32.7 32.7 0 0 0 5.2-1c2-.4 3.5-1.6 4.4-3.4.6-1 1-2.3 1-3.5a34.5 34.5 0 0 0 0-8l-.9-3a5.8 5.8 0 0 0-2.5-2.9 16 16 0 0 0-7.7-1.8 32 32 0 0 0-6.2.4 13 13 0 0 0-3.6 1.2c-.7.4-1.3.8-1.8 1.3a8 8 0 0 0-1.7 3.2c-.4 1.4-.7 2.8-.7 4.2a31.7 31.7 0 0 0 .5 6.8c.3 1.3 1 2.5 1.8 3.5 1 1 2.1 1.8 3.5 2.1.2 0 .2.2.2.3v5.7Z"/>
    <path d="M24 25.4c-.1-.5.2-.9.5-1.2.5-.5 1-.9 1.6-1.2a1.2 1.2 0 0 1 1.5.3c.7.7 1.3 1.4 1.8 2.2l.6 1.2a1 1 0 0 1-.2 1l-1 .7a1 1 0 0 0-.3 1.1c.2 1 .6 1.8 1.3 2.5.8 1 1.8 1.7 3 2.1.2.2.5.2.8.2.2 0 .4-.2.5-.3l.5-.7a1.4 1.4 0 0 1 1.8-.3c.9.4 1.6 1 2.4 1.6l.5.4a1.2 1.2 0 0 1 .4 1.4c-.2.4-.4.8-.7 1-.3.6-.8 1-1.3 1.3a1.8 1.8 0 0 1-1.6 0 21.5 21.5 0 0 1-9.7-7.8 19 19 0 0 1-2.5-5.2v-.3ZM32.4 22.9a7.1 7.1 0 0 1 6.8 5.8l.2 1.8c0 .2 0 .3-.2.3-.1 0-.2-.1-.2-.3a8 8 0 0 0-.7-3.5 6.5 6.5 0 0 0-4.6-3.6 7.3 7.3 0 0 0-1.7-.2h-.1V23a.2.2 0 0 1 0-.1h.5Z"/>
    <path d="M37 29.4a4.3 4.3 0 0 0-1.7-3.4c-.7-.5-1.4-.7-2.2-.8h-.4c-.1 0-.2-.1-.2-.3l.3-.1c2.1 0 4 1.3 4.5 3.6l.2 1.3v.1c0 .2 0 .2-.2.2a.2.2 0 0 1-.2-.2v-.4Z"/>
    <path d="M33.3 26.7c1.2.1 2 .7 2.2 2l.1.4c0 .2 0 .3-.2.3-.1 0-.2-.1-.2-.3 0-.4-.1-1-.4-1.3-.3-.4-.7-.6-1.2-.7h-.3c-.2 0-.3 0-.2-.2l.2-.2Z"/>
  </g>
</svg>
