<svg xmlns="http://www.w3.org/2000/svg" width="138" height="137" fill="none">
  <path fill="#E0544E" d="M55.5 15a6 6 0 0 1 8.2-1.3l9.5 6.4a6 6 0 0 0 5.2.8l11-3.6c3-1 6.4.6 7.5 3.6l4 10.9a6 6 0 0 0 3.7 3.6l11 3.6a6 6 0 0 1 3.9 7.3l-3.2 11.1a6 6 0 0 0 1 5.2L124 72a6 6 0 0 1-1.1 8.2l-9.2 7a6 6 0 0 0-2.3 4.8v11.6a6 6 0 0 1-5.7 6l-11.6.3a6 6 0 0 0-4.6 2.5l-6.8 9.3a6 6 0 0 1-8.1 1.5l-9.6-6.5a6 6 0 0 0-5.2-.7l-11 3.6a6 6 0 0 1-7.5-3.7l-4-10.9a6 6 0 0 0-3.7-3.6l-11-3.6a6 6 0 0 1-3.9-7.3L22 79.4a6 6 0 0 0-.9-5.2L14.2 65a6 6 0 0 1 1.1-8.2l9.2-7.1a6 6 0 0 0 2.3-4.7V33.3a6 6 0 0 1 5.7-6l11.6-.4a6 6 0 0 0 4.6-2.4l6.8-9.4Z"/>
  <path fill="#fff" d="M52.6 78.2a9 9 0 0 1-6.5-1.3l1.2-2a7 7 0 0 0 5 1c.8-.1 1.4-.4 1.8-.8.4-.5.5-1 .4-1.5 0-.6-.4-1-.9-1.2a8 8 0 0 0-2.8-.5 10 10 0 0 1-4-.9c-.8-.5-1.4-1.3-1.6-2.6-.2-1.3 0-2.4.9-3.3.8-1 1.9-1.6 3.4-1.8 2-.4 3.8 0 5.6.9l-1 2.2c-1.6-.8-3-1-4.3-.9-.7.2-1.3.4-1.7.9-.3.4-.4.8-.4 1.3.1.6.5 1 1 1.3.5.2 1.5.3 3 .4 1.6.1 2.9.4 3.7 1 1 .5 1.5 1.3 1.7 2.5a4 4 0 0 1-1 3.5c-.7.9-2 1.5-3.5 1.8Zm5.8-1.2L62.2 61l2.4-.4 9 13.6-2.7.4-2-3.2-7 1.2-.9 3.8-2.6.5Zm4-6.7 5-1L64 64l-1.4 6.3Zm13 3.7-2.7-14.6 2.6-.5 2.2 12.3 7.6-1.4.4 2.4L75.3 74Zm12-2.2-2.6-14.6 10.8-1.9.4 2.3-8.2 1.5.6 3.8 7.4-1.3.4 2.3-7.3 1.3.6 3.9 8.4-1.5.4 2.3-11 2Z"/>
</svg>
